<svg xmlns="http://www.w3.org/2000/svg" width="256" height="256" viewBox="0 0 100 100"><rect width="100" height="100" rx="50" fill="#0c0000"></rect><path d="M73.82 82.12L25.57 82.12L25.57 78.34L26.71 78.34Q28.25 78.34 29.59 78.13Q30.93 77.91 31.94 77.22Q32.95 76.54 33.52 75.27Q34.09 73.99 34.09 71.88L34.09 71.88L34.09 28.12Q34.09 26.01 33.52 24.73Q32.95 23.46 31.94 22.78Q30.93 22.09 29.59 21.88Q28.25 21.66 26.71 21.66L26.71 21.66L25.57 21.66L25.57 17.88L51.76 17.88L51.76 21.66L50.57 21.66Q49.08 21.66 47.74 21.85Q46.40 22.05 45.39 22.71Q44.38 23.37 43.78 24.58Q43.19 25.79 43.19 27.76L43.19 27.76L43.19 77.64L60.94 77.64Q62.96 77.64 64.39 76.92Q65.82 76.19 66.74 75.03Q67.67 73.86 68.17 72.41Q68.68 70.96 68.85 69.51L68.85 69.51L69.73 62.79L74.43 62.79L73.82 82.12Z" fill="#fff"></path></svg>